<svg xmlns="http://www.w3.org/2000/svg" xmlns:xlink="http://www.w3.org/1999/xlink" width="17.462" height="19" viewBox="0 0 17.462 19">
  <defs>
    <clipPath id="clip-path">
      <rect id="Rectangle_63" data-name="Rectangle 63" width="17.462" height="19" fill="#212326" stroke="#212326" stroke-width="0.3"/>
    </clipPath>
  </defs>
  <g id="icon_-_accout" data-name="icon - accout" transform="translate(0 0.001)" opacity="1">
    <g id="Group_380" data-name="Group 380" transform="translate(0 -0.001)" clip-path="url(#clip-path)">
      <path id="Path_518" data-name="Path 518" d="M17.459,18.294a8.776,8.776,0,0,0-6.144-7.536,5.689,5.689,0,1,0-5.168,0A8.776,8.776,0,0,0,0,18.294a.644.644,0,0,0,1.282.123,7.4,7.4,0,0,1,.553-2.189,7.485,7.485,0,0,1,13.785,0,7.4,7.4,0,0,1,.553,2.189.644.644,0,0,0,1.282-.123M8.731,10.089A4.4,4.4,0,0,1,7.019,1.633a4.4,4.4,0,0,1,3.425,8.111,4.372,4.372,0,0,1-1.713.345" transform="translate(0 0.001)" fill="#212326" stroke="#212326" stroke-width="0.3"/>
    </g>
  </g>
</svg>
