<svg xmlns="http://www.w3.org/2000/svg" width="17.351" height="20.2" viewBox="0 0 17.351 20.2">
  <path id="icon_-_cart" data-name="icon - cart" d="M21.058,6.25a3.047,3.047,0,0,0-3.214,2.857V11.25H14.629a.714.714,0,0,0-.714.639L12.487,25.461a.714.714,0,0,0,.635.785.7.7,0,0,0,.079,0H28.915a.714.714,0,0,0,.718-.71.7.7,0,0,0,0-.079L28.2,11.889a.714.714,0,0,0-.714-.639H24.272V9.107A3.047,3.047,0,0,0,21.058,6.25ZM19.272,9.107a1.637,1.637,0,0,1,1.786-1.429,1.638,1.638,0,0,1,1.786,1.429V11.25H19.272Zm7.571,3.571,1.278,12.143H13.994l1.279-12.143h2.571v1.429a.714.714,0,1,0,1.429,0V12.679h3.571v1.429a.714.714,0,0,0,1.429,0V12.679Z" transform="translate(-12.382 -6.15)" fill="#212326" stroke="#f8f8f8" stroke-width="0.2" opacity="1"/>
</svg>
