<svg xmlns="http://www.w3.org/2000/svg" width="18.76" height="16.682" viewBox="0 0 18.76 16.682">
  <g id="icon_-_wishlist" data-name="icon - wishlist" transform="translate(0.25 0.25)">
    <path id="Path_485" data-name="Path 485" d="M11.187,963.375A5.223,5.223,0,0,0,6,968.77c0,2.666,1.514,4.971,3.365,6.789a23.782,23.782,0,0,0,5.576,3.949.415.415,0,0,0,.376,0,23.782,23.782,0,0,0,5.576-3.949c1.851-1.818,3.365-4.123,3.365-6.789a5.223,5.223,0,0,0-5.187-5.4,4.636,4.636,0,0,0-3.942,2.2A4.636,4.636,0,0,0,11.187,963.375Zm0,.83a3.892,3.892,0,0,1,3.586,2.282.415.415,0,0,0,.713,0,3.892,3.892,0,0,1,3.586-2.282,4.35,4.35,0,0,1,4.357,4.565c0,2.35-1.357,4.461-3.119,6.193a22.776,22.776,0,0,1-5.181,3.7,22.776,22.776,0,0,1-5.181-3.7c-1.762-1.731-3.119-3.843-3.119-6.193A4.35,4.35,0,0,1,11.187,964.2Z" transform="translate(-6 -963.375)" fill="#212326" stroke="#212326" stroke-width="0.5"/>
  </g>
</svg>
